<svg xmlns="http://www.w3.org/2000/svg" xmlns:xlink="http://www.w3.org/1999/xlink" viewBox="0 0 65.65 65.65"><defs><style>.cls-1,.cls-2,.cls-3{stroke:#589bfc;}.cls-1{stroke-miterlimit:10;stroke-width:4px;fill:url(#linear-gradient);}.cls-2,.cls-3{fill:#589bfc;stroke-linecap:round;stroke-linejoin:round;}.cls-3{stroke-width:2.5px;}</style><linearGradient id="linear-gradient" x1="32.83" y1="8.62" x2="32.83" y2="58.07" gradientUnits="userSpaceOnUse"><stop offset="0" stop-color="#fff"/><stop offset="1" stop-color="#e6e6e6"/></linearGradient></defs><title>Asset 2</title><g id="Layer_2" data-name="Layer 2"><g id="Layer_1-2" data-name="Layer 1"><circle class="cls-1" cx="32.83" cy="32.83" r="30.83"/><circle class="cls-2" cx="15.05" cy="47.91" r="2.76" transform="translate(-27.74 21.62) rotate(-41)"/><circle class="cls-2" cx="26.35" cy="38.08" r="3.16" transform="translate(-18.52 26.63) rotate(-41)"/><circle class="cls-2" cx="22.98" cy="23.14" r="3.07" transform="translate(-9.55 20.75) rotate(-41)"/><circle class="cls-2" cx="40.68" cy="43.4" r="2.81" transform="translate(-18.49 37.33) rotate(-41)"/><circle class="cls-2" cx="50.88" cy="34.52" r="3.05" transform="translate(-10.17 41.85) rotate(-41)"/><circle class="cls-2" cx="48.34" cy="19.24" r="3.3" transform="translate(-0.77 36.43) rotate(-41)"/><circle class="cls-2" cx="33.19" cy="14.27" r="3.41" transform="translate(-1.22 25.27) rotate(-41)"/><line class="cls-3" x1="16.46" y1="46.68" x2="25.08" y2="39.47"/><line class="cls-3" x1="26.35" y1="38.08" x2="22.98" y2="23.14"/><line class="cls-3" x1="26.35" y1="38.08" x2="40.68" y2="43.4"/><line class="cls-3" x1="24.39" y1="21.91" x2="31.77" y2="15.5"/><line class="cls-3" x1="27.9" y1="37.01" x2="48.34" y2="19.24"/><line class="cls-3" x1="42.09" y1="42.17" x2="49.47" y2="35.75"/></g></g></svg>