<svg xmlns="http://www.w3.org/2000/svg" viewBox="0 0 46 42.38"><defs><style>.cls-1,.cls-2{fill:none;}.cls-1,.cls-2,.cls-3{stroke:#589bfc;stroke-miterlimit:10;}.cls-2{stroke-width:0.75px;}.cls-3{fill:#589bfc;}</style></defs><title>calendar_accent</title><g id="Layer_2" data-name="Layer 2"><g id="Layer_1-2" data-name="Layer 1"><rect class="cls-1" x="0.5" y="15.38" width="45" height="26.5"/><line class="cls-2" x1="0.5" y1="23.88" x2="45.5" y2="23.88"/><line class="cls-2" x1="0.5" y1="32.88" x2="45.5" y2="32.88"/><line class="cls-2" x1="9.5" y1="14.88" x2="9.5" y2="41.88"/><line class="cls-2" x1="18.5" y1="14.88" x2="18.5" y2="41.88"/><line class="cls-2" x1="27.5" y1="14.88" x2="27.5" y2="41.88"/><line class="cls-2" x1="36.5" y1="14.88" x2="36.5" y2="41.88"/><polygon class="cls-3" points="35 5.88 35 13.38 29 13.38 29 5.88 17 5.88 17 13.38 11 13.38 11 5.88 0.5 5.88 0.5 14.88 45.5 14.88 45.5 5.88 35 5.88"/><rect class="cls-2" x="11.43" y="0.38" width="5.14" height="12"/><rect class="cls-2" x="29.43" y="0.38" width="5.14" height="12"/></g></g></svg>