<?xml version="1.0" encoding="utf-8"?>
<!-- Generator: Adobe Illustrator 21.0.2, SVG Export Plug-In . SVG Version: 6.00 Build 0)  -->
<svg version="1.1" id="Layer_1" xmlns="http://www.w3.org/2000/svg" xmlns:xlink="http://www.w3.org/1999/xlink" x="0px" y="0px"
	 viewBox="0 0 288 560" style="enable-background:new 0 0 288 560;" xml:space="preserve">
<style type="text/css">
	.st0{fill:url(#SVGID_1_);stroke:#589BFC;stroke-width:4;stroke-miterlimit:10;}
	.st1{fill:#589BFC;stroke:#589BFC;stroke-linecap:round;stroke-linejoin:round;}
	.st2{fill:#589BFC;stroke:#589BFC;stroke-width:2.5;stroke-linecap:round;stroke-linejoin:round;}
</style>
<g>
	<linearGradient id="SVGID_1_" gradientUnits="userSpaceOnUse" x1="36.9147" y1="12.0923" x2="36.9147" y2="61.5477">
		<stop  offset="0" style="stop-color:#FFFFFF"/>
		<stop  offset="1" style="stop-color:#E6E6E6"/>
	</linearGradient>
	<circle class="st0" cx="36.9" cy="36.3" r="30.8"/>
	<g>
		<ellipse transform="matrix(0.7547 -0.6561 0.6561 0.7547 -29.0175 25.1586)" class="st1" cx="19.1" cy="51.4" rx="2.8" ry="2.8"/>
		<ellipse transform="matrix(0.7547 -0.6561 0.6561 0.7547 -19.7943 30.1659)" class="st1" cx="30.4" cy="41.6" rx="3.2" ry="3.2"/>
		<ellipse transform="matrix(0.7547 -0.6561 0.6561 0.7547 -10.8213 24.288)" class="st1" cx="27.1" cy="26.6" rx="3.1" ry="3.1"/>
		<ellipse transform="matrix(0.7547 -0.6561 0.6561 0.7547 -19.7681 40.8668)" class="st1" cx="44.8" cy="46.9" rx="2.8" ry="2.8"/>
		<ellipse transform="matrix(0.7547 -0.6561 0.6561 0.7547 -11.4416 45.3873)" class="st1" cx="55" cy="38" rx="3" ry="3"/>
		<ellipse transform="matrix(0.7547 -0.6561 0.6561 0.7547 -2.0426 39.9692)" class="st1" cx="52.4" cy="22.7" rx="3.3" ry="3.3"/>
		<ellipse transform="matrix(0.7547 -0.6561 0.6561 0.7547 -2.4948 28.8085)" class="st1" cx="37.3" cy="17.7" rx="3.4" ry="3.4"/>
		<line class="st2" x1="20.5" y1="50.2" x2="29.2" y2="42.9"/>
		<line class="st2" x1="30.4" y1="41.6" x2="27.1" y2="26.6"/>
		<line class="st2" x1="30.4" y1="41.6" x2="44.8" y2="46.9"/>
		<line class="st2" x1="28.5" y1="25.4" x2="35.9" y2="19"/>
		<line class="st2" x1="32" y1="40.5" x2="52.4" y2="22.7"/>
		<line class="st2" x1="46.2" y1="45.6" x2="53.6" y2="39.2"/>
	</g>
</g>
</svg>
